<?xml version="1.0"?><svg version="1.1" id="Layer_1" xmlns="http://www.w3.org/2000/svg" x="0" y="0" viewBox="0 0 100 100" xml:space="preserve"><path stroke-linejoin="round" fill="#f47e5f" stroke="#323232" stroke-width="3.5" stroke-miterlimit="10" d="M56.346 18.866l27.14 10.89L90 39.832l-28.906-10.89z"/><path fill="#f7b26a" stroke="#323232" stroke-width="3.5" stroke-linejoin="round" stroke-miterlimit="10" d="M45.486 81.134l-27.14-10.89V29.756l27.14 10.89z"/><path fill="#f7b26a" stroke="#323232" stroke-width="3.5" stroke-linejoin="round" stroke-miterlimit="10" d="M83.486 29.756l-27.14-10.89-38 10.89h0l27.14 10.89 38-10.89z"/><path fill="#f7b26a" stroke="#323232" stroke-width="3.5" stroke-linejoin="round" stroke-miterlimit="10" d="M83.486 29.756l-27.14-10.89-38 10.89h0l27.14 10.89 38-10.89z"/><path fill="#f7b26a" stroke="#323232" stroke-width="3.5" stroke-linejoin="round" stroke-miterlimit="10" d="M83.486 70.244l-27.14-10.89V18.866l27.14 10.89z"/><path stroke-width="3.5" stroke-miterlimit="10" opacity=".2" stroke="#000" stroke-linejoin="round" d="M18.346 54.557L45.486 66V40.646l-27.14-10.89z"/><path fill="#f7b26a" stroke="#323232" stroke-width="3.5" stroke-linejoin="round" stroke-miterlimit="10" d="M45.486 40.646L37.14 53.978 10 43.089l8.346-13.333z"/><path stroke-width="3.5" stroke-miterlimit="10" opacity=".2" stroke="#000" stroke-linejoin="round" d="M83.486 70.244l-27.14-10.89V18.866l27.14 10.89z"/><path fill="#f7b26a" stroke="#323232" stroke-width="3.5" stroke-linejoin="round" stroke-miterlimit="10" d="M45.486 81.134l38-10.89V29.756l-38 10.89z"/><path stroke-linejoin="round" fill="#f7b26a" stroke="#323232" stroke-width="3.5" stroke-linecap="round" stroke-miterlimit="10" d="M51.74 72.342l19.577-5.61"/><path stroke-linejoin="round" fill="#f7b26a" stroke="#323232" stroke-width="3.5" stroke-linecap="round" stroke-miterlimit="10" d="M51.74 65.342l12.347-3.539"/><path stroke-width="3.5" stroke-miterlimit="10" opacity=".2" stroke="#000" stroke-linejoin="round" d="M66.411 75.137l17.075-4.893V29.756l-8.563 2.454z"/><path fill="#f7b26a" stroke="#323232" stroke-width="3.5" stroke-linejoin="round" stroke-miterlimit="10" d="M83.486 29.756l5.43 13.333-38 10.889-5.43-13.332z"/><metadata xmlns:d="https://loading.io/stock/">
<d:name>unbox</d:name>
<d:tags>unbox,install,deploy,carton,carboard boxes,container,package,payload,delivery</d:tags>
<d:license>by</d:license>
<d:slug>aoj8me</d:slug>
</metadata></svg>